<svg width="172" height="188" viewBox="0 0 172 188" fill="none" xmlns="http://www.w3.org/2000/svg">
<g clip-path="url(#clip0_16_766)">
<path d="M121.831 79.6973H50.1688C48.1909 79.6973 46.5856 81.3026 46.5856 83.2805V140.61C46.5856 149.267 52.7486 156.498 60.918 158.167V176.441C60.918 182.368 65.7408 187.19 71.6673 187.19C77.5939 187.19 82.4166 182.368 82.4166 176.441V158.526H89.5827V176.441C89.5827 182.368 94.4054 187.19 100.332 187.19C106.259 187.19 111.081 182.368 111.081 176.441V158.167C119.251 156.505 125.414 149.267 125.414 140.61V83.2805C125.414 81.2956 123.809 79.6973 121.831 79.6973ZM104.754 34.2852L110.795 20.1892C111.576 18.3689 110.73 16.2694 108.91 15.4881C107.111 14.6997 104.983 15.5455 104.209 17.3729L98.1677 31.476C94.3339 30.2291 90.2491 29.534 86.0065 29.534C81.7643 29.534 77.6795 30.2291 73.8454 31.476L67.7905 17.3729C67.0166 15.5455 64.8882 14.6926 63.0894 15.4881C61.2691 16.2691 60.4306 18.3759 61.212 20.1892L67.2531 34.2852C54.9488 40.9642 46.5859 53.9994 46.5859 68.948C46.5859 70.9258 48.1912 72.5312 50.1691 72.5312H121.831C123.809 72.5312 125.414 70.9258 125.414 68.948C125.414 53.9994 117.051 40.9642 104.754 34.2852ZM71.6673 58.1987C69.6895 58.1987 68.0841 56.5934 68.0841 54.6155C68.0841 52.6376 69.6895 51.0323 71.6673 51.0323C73.6452 51.0323 75.2505 52.6376 75.2505 54.6155C75.2505 56.5934 73.6452 58.1987 71.6673 58.1987ZM100.332 58.1987C98.3544 58.1987 96.7491 56.5934 96.7491 54.6155C96.7491 52.6376 98.3544 51.0323 100.332 51.0323C102.31 51.0323 103.916 52.6376 103.916 54.6155C103.916 56.5934 102.31 58.1987 100.332 58.1987ZM143.329 79.6973C137.403 79.6973 132.58 84.52 132.58 90.4466V126.278C132.58 132.204 137.403 137.027 143.329 137.027C149.256 137.027 154.079 132.204 154.079 126.278V90.4466C154.079 84.5203 149.256 79.6973 143.329 79.6973ZM28.6702 79.6973C22.7436 79.6973 17.9209 84.52 17.9209 90.4466V126.278C17.9209 132.204 22.7436 137.027 28.6702 137.027C34.5967 137.027 39.4195 132.204 39.4195 126.278V90.4466C39.4195 84.5203 34.5967 79.6973 28.6702 79.6973Z" fill="#164B60"/>
</g>
<defs>
<clipPath id="clip0_16_766">
<rect width="172" height="172" fill="white" transform="translate(0 15.1899)"/>
</clipPath>
</defs>
</svg>
