<svg width="172" height="172" viewBox="0 0 172 172" fill="none" xmlns="http://www.w3.org/2000/svg">
<path d="M62.234 172C36.6353 171.853 15.4604 119.597 15.4604 92.9841C15.4604 49.5125 48.0716 39.9954 60.6397 39.9954C66.3036 39.9954 72.3515 42.2196 77.6858 44.1879C81.4161 45.5608 85.274 46.9782 87.4196 46.9782C88.7039 46.9782 91.7304 45.7725 94.4024 44.7146C100.101 42.446 107.192 39.6265 115.449 39.6265H115.498C121.664 39.6265 140.359 40.9797 151.598 57.8585L154.231 61.8149L150.442 64.674C145.029 68.7583 135.153 76.2088 135.153 90.9668C135.153 108.446 146.338 115.168 151.712 118.401C154.084 119.828 156.539 121.3 156.539 124.518C156.539 126.619 139.768 171.739 115.415 171.739C109.455 171.739 105.243 169.948 101.528 168.369C97.7682 166.769 94.525 165.391 89.1661 165.391C86.4497 165.391 83.0148 166.676 79.3783 168.039C74.4087 169.894 68.7838 172 62.4013 172H62.234ZM118.029 0C118.663 22.8693 102.308 38.7349 85.9724 37.7399C83.2805 19.4894 102.306 0 118.029 0Z" fill="#164B60"/>
</svg>
