<svg width="40" height="47" viewBox="0 0 40 47" fill="none" xmlns="http://www.w3.org/2000/svg">
<path d="M30.7012 7.92657L35.1601 3.46768C35.3143 3.31355 35.4519 3.2585 35.573 3.30254C35.6941 3.34658 35.7546 3.4897 35.7546 3.73191V15.6553C35.7546 15.8975 35.6721 16.1012 35.5069 16.2663C35.3418 16.4315 35.1381 16.5141 34.8959 16.5141H22.9725C22.7303 16.5141 22.5872 16.4535 22.5431 16.3324C22.4991 16.2113 22.5541 16.0737 22.7083 15.9195L27.1341 11.4937C24.712 9.84224 22.0807 9.01652 19.2402 9.01652C16.686 9.01652 14.3245 9.64407 12.1556 10.8992C9.98667 12.1543 8.27468 13.8663 7.01958 16.0351C5.76449 18.204 5.13694 20.5656 5.13694 23.1198H0.182617C0.182617 20.5436 0.683554 18.0774 1.68543 15.7214C2.6873 13.3653 4.04148 11.334 5.74797 9.62756C7.45446 7.92107 9.48573 6.56688 11.8418 5.56501C14.1978 4.56314 16.664 4.0622 19.2402 4.0622C23.4679 4.0622 27.2883 5.35032 30.7012 7.92657ZM33.3435 23.1198H38.2979C38.2979 25.6961 37.7969 28.1622 36.7951 30.5183C35.7932 32.8743 34.439 34.9056 32.7325 36.6121C31.026 38.3186 28.9948 39.6728 26.6387 40.6746C24.2826 41.6765 21.8165 42.1774 19.2402 42.1774C15.0126 42.1774 11.1812 40.8783 7.74621 38.28L3.32035 42.7059C3.16622 42.8821 3.0286 42.9426 2.90749 42.8876C2.78639 42.8325 2.72584 42.6949 2.72584 42.4747V30.5843C2.72584 30.3421 2.80841 30.1384 2.97355 29.9733C3.1387 29.8082 3.34237 29.7256 3.58458 29.7256H15.475C15.6951 29.7256 15.8328 29.7861 15.8878 29.9072C15.9429 30.0283 15.8823 30.166 15.7062 30.3201L11.3133 34.7129C13.7354 36.3864 16.3777 37.2231 19.2402 37.2231C21.7945 37.2231 24.156 36.5956 26.3249 35.3405C28.4938 34.0854 30.2058 32.3734 31.4609 30.2045C32.716 28.0356 33.3435 25.6741 33.3435 23.1198Z" fill="#333333"/>
</svg>
