<svg width="40" height="47" viewBox="0 0 40 47" fill="none" xmlns="http://www.w3.org/2000/svg">
<path d="M15.0456 3.30293H21.6513C22.1137 3.30293 22.5046 3.46257 22.8239 3.78185C23.1431 4.10112 23.3028 4.49196 23.3028 4.95437V19.8173H29.6113C30.0517 19.8173 30.3324 19.9439 30.4535 20.1972C30.5746 20.4504 30.4921 20.7531 30.2058 21.1055L19.4054 34.317C19.1191 34.6693 18.7668 34.8454 18.3485 34.8454C17.9301 34.8454 17.5778 34.6693 17.2915 34.317L6.49112 21.1055C6.20487 20.7531 6.1223 20.4504 6.2434 20.1972C6.36451 19.9439 6.64525 19.8173 7.08564 19.8173H13.3941V4.95437C13.3941 4.49196 13.5538 4.10112 13.8731 3.78185C14.1923 3.46257 14.5832 3.30293 15.0456 3.30293ZM34.0371 29.726H35.6886C35.9088 29.726 36.1014 29.8085 36.2666 29.9737C36.4317 30.1388 36.5143 30.3315 36.5143 30.5517V42.1118C36.5143 42.332 36.4317 42.5246 36.2666 42.6898C36.1014 42.8549 35.9088 42.9375 35.6886 42.9375H1.00834C0.788145 42.9375 0.595477 42.8549 0.430333 42.6898C0.265189 42.5246 0.182617 42.332 0.182617 42.1118V30.5517C0.182617 30.3315 0.265189 30.1388 0.430333 29.9737C0.595477 29.8085 0.788145 29.726 1.00834 29.726H2.65978C2.87997 29.726 3.07264 29.8085 3.23778 29.9737C3.40293 30.1388 3.4855 30.3315 3.4855 30.5517V36.3317H33.2114V30.5517C33.2114 30.3315 33.294 30.1388 33.4591 29.9737C33.6243 29.8085 33.817 29.726 34.0371 29.726Z" fill="#333333"/>
</svg>
