<svg width="40" height="48" viewBox="0 0 40 48" fill="none" xmlns="http://www.w3.org/2000/svg">
<g clip-path="url(#clip0_16_840)">
<path d="M14.2859 27.513L33.1454 8.65353C33.3215 8.47737 33.5197 8.3893 33.7399 8.3893C33.9601 8.3893 34.1472 8.47737 34.3014 8.65353L40.1475 14.4996C40.3236 14.6538 40.4117 14.8409 40.4117 15.0611C40.4117 15.2813 40.3236 15.4795 40.1475 15.6556L14.2859 41.5502C14.1318 41.7264 13.9391 41.8145 13.7079 41.8145C13.4767 41.8145 13.284 41.7264 13.1299 41.5502L0.446848 28.8672C0.270694 28.691 0.182617 28.4928 0.182617 28.2726C0.182617 28.0524 0.270694 27.8653 0.446848 27.7112L6.29295 21.8651C6.44708 21.6889 6.63424 21.6008 6.85444 21.6008C7.07463 21.6008 7.2728 21.6889 7.44896 21.8651L13.0969 27.513C13.251 27.6671 13.4492 27.7442 13.6914 27.7442C13.9336 27.7442 14.1318 27.6671 14.2859 27.513Z" fill="#333333"/>
</g>
<defs>
<clipPath id="clip0_16_840">
<rect width="40" height="47" fill="white" transform="matrix(1 0 0 -1 0 47.3301)"/>
</clipPath>
</defs>
</svg>
