<svg width="40" height="48" viewBox="0 0 40 48" fill="none" xmlns="http://www.w3.org/2000/svg">
<path d="M19.3342 4.22717L19.6315 4.52443C19.8077 4.74463 19.8627 5.04189 19.7966 5.41621C19.7306 5.65842 18.8608 8.14109 17.1874 12.8642C15.5139 17.5873 14.6552 20.026 14.6111 20.1801L24.5198 20.1471C25.0482 20.1471 25.406 20.3397 25.5932 20.7251C25.7804 21.1104 25.7198 21.5012 25.4115 21.8976C25.3895 21.8976 23.9197 23.6041 21.0022 27.0171C18.0847 30.43 15.1451 33.8705 12.1835 37.3386C9.22193 40.8066 7.6971 42.5956 7.60902 42.7057C7.34479 43.036 7.05854 43.2012 6.75027 43.2012H6.45301L6.15575 42.9369C5.95758 42.6947 5.91354 42.3424 6.02364 41.88C6.06767 41.6818 6.53008 40.3222 7.41085 37.801C8.29161 35.2798 9.16137 32.8081 10.0201 30.386L11.3082 26.7528H1.33354C0.827102 26.7528 0.485805 26.5436 0.309651 26.1253C0.089459 25.6629 0.155517 25.2115 0.507824 24.7711C2.15926 22.8774 4.46578 20.2627 7.42736 16.9268C10.3889 13.5908 12.8991 10.7614 14.9579 8.43835C17.0167 6.11532 18.1012 4.88775 18.2113 4.75563C18.4094 4.40333 18.6847 4.22717 19.037 4.22717H19.3342Z" fill="#333333"/>
</svg>
