<svg width="172" height="173" viewBox="0 0 172 173" fill="none" xmlns="http://www.w3.org/2000/svg">
<g clip-path="url(#clip0_16_769)">
<path d="M38.503 112.319C38.503 101.99 41.47 92.3933 46.5518 84.4202L46.6999 83.373C46.6999 83.373 28.2388 90.9219 23.6082 108.254C20.9593 118.167 21.169 121.588 21.169 121.588L40.3581 128.256L40.5499 126.898C39.2203 122.285 38.503 117.391 38.503 112.319ZM148.391 108.254C143.761 90.9222 125.3 83.3734 125.3 83.3734L125.448 84.4205C130.53 92.3937 133.497 101.991 133.497 112.32C133.497 117.391 132.779 122.286 131.45 126.899L131.642 128.256L150.831 121.589C150.831 121.589 151.04 118.168 148.391 108.254ZM102.272 59.038C101.897 59.0689 101.519 59.0887 101.137 59.0887C93.5771 59.0887 87.4485 52.9602 87.4485 45.4006C87.4485 45.2592 87.4549 45.1194 87.4593 44.979H84.54C84.544 45.1191 84.5507 45.2588 84.5507 45.4006C84.5507 52.9602 78.4222 59.0887 70.8626 59.0887C70.4803 59.0887 70.102 59.0693 69.7275 59.038C69.7164 59.0911 69.7033 59.1452 69.6922 59.1983C68.3914 65.486 67.9577 66.7874 67.9577 66.7874L85.9996 89.0255L104.042 66.7874C104.042 66.7874 103.608 65.4867 102.307 59.1983C102.296 59.1455 102.284 59.0914 102.272 59.038ZM136.951 167.533H102.021V166.368C102.021 156.722 109.84 148.902 119.486 148.902C129.132 148.902 136.951 156.722 136.951 166.368L136.951 167.533ZM70.8589 167.533H35.9291V166.368C35.9291 156.722 43.7484 148.902 53.3942 148.902C63.0399 148.902 70.8592 156.722 70.8592 166.368L70.8589 167.533Z" fill="#164B60"/>
<path d="M152.891 107.052C148.121 89.1984 130.871 80.7509 127.58 79.2852C127.247 78.825 126.915 78.3648 126.568 77.9146C132.318 69.6599 135.449 59.7588 135.449 49.6394C135.449 22.3726 113.266 0.189941 85.9996 0.189941C58.7332 0.189941 36.5502 22.3726 36.5502 49.6394C36.5502 59.7588 39.6805 69.6603 45.4307 77.9146C45.0837 78.3651 44.7518 78.825 44.4192 79.2852C41.128 80.7509 23.8779 89.1984 19.1076 107.052C16.4006 117.183 16.4766 121.176 16.5189 121.873C16.6338 123.749 17.864 125.372 19.6391 125.989L37.4169 132.166C39.2481 137.099 41.7519 141.754 44.8633 145.957C36.8872 149.303 31.2703 157.191 31.2703 166.367V167.532C31.2703 170.104 33.3554 172.19 35.9277 172.19H70.8576C73.4298 172.19 75.515 170.104 75.515 167.532V166.367C75.515 166.229 75.5069 166.092 75.5043 165.954C78.3681 166.569 81.2834 166.926 84.2319 167.029C84.8161 167.074 85.4047 167.099 85.998 167.099C86.2019 167.099 86.4007 167.081 86.5979 167.056C90.2536 167.013 93.8569 166.579 97.3768 165.755C97.3711 165.959 97.3614 166.162 97.3614 166.367V167.532C97.3614 170.104 99.4466 172.189 102.019 172.189H136.949C139.521 172.189 141.606 170.104 141.606 167.532V166.367C141.606 154.169 131.682 144.244 119.484 144.244C111.407 144.244 104.33 148.597 100.468 155.078C95.8342 156.844 90.9755 157.748 85.9976 157.748C85.5814 157.748 85.1662 157.735 84.7516 157.722C72.2097 156.507 60.2688 137.216 60.2688 117.573C60.2688 102.464 67.9104 91.931 80.3871 89.5018L82.3809 91.9592C83.2654 93.049 84.5941 93.6825 85.998 93.6825C87.4018 93.6825 88.7305 93.0496 89.615 91.9592L91.6088 89.5018C104.086 91.9306 111.727 102.464 111.727 117.573C111.727 120.145 113.812 122.231 116.385 122.231C118.957 122.231 121.042 120.145 121.042 117.573C121.042 99.755 112.239 86.3833 98.0333 81.5831L107.657 69.7211C108.683 68.4569 109.016 66.871 108.469 65.3408C108.393 65.0804 107.946 63.4713 106.867 58.2579L106.825 58.0637C106.336 55.7746 104.222 54.2034 101.89 54.3952C101.603 54.4191 101.356 54.4302 101.135 54.4302C100.824 54.4302 100.516 54.4144 100.213 54.3835C95.6649 53.9199 92.1043 50.0677 92.1043 45.3995C92.1043 40.4195 96.1554 36.3685 101.135 36.3685C106.115 36.3685 110.166 40.4195 110.166 45.3992C110.166 47.9714 112.251 50.0566 114.823 50.0566C117.396 50.0566 119.481 47.9714 119.481 45.3992C119.481 35.2834 111.251 27.0536 101.135 27.0536C94.857 27.0536 89.3069 30.2255 85.9983 35.0492C82.6896 30.2255 77.1396 27.0536 70.8613 27.0536C60.7455 27.0536 52.5157 35.2834 52.5157 45.3992C52.5157 47.9714 54.6008 50.0566 57.1731 50.0566C59.7454 50.0566 61.8306 47.9714 61.8306 45.3992C61.8306 40.4199 65.8816 36.3685 70.8613 36.3685C75.8405 36.3685 79.8919 40.4192 79.8923 45.3992C79.8923 50.0674 76.3317 53.9199 71.7834 54.3835C71.48 54.4144 71.1727 54.4302 70.8613 54.4302C70.6399 54.4302 70.3936 54.4191 70.1064 54.3952C67.7693 54.2085 65.6552 55.8015 65.1658 58.0906L65.1305 58.2542C64.0508 63.4709 63.6043 65.0808 63.5284 65.3411C62.9811 66.8717 63.3141 68.4569 64.3397 69.7214L73.9636 81.5834C59.7575 86.3836 50.9549 99.7553 50.9549 117.573C50.9549 126.734 53.2567 136.319 57.2621 144.591C56.7256 144.496 56.1848 144.414 55.6359 144.358C48.7058 136.964 44.3779 127.217 43.3818 116.9C43.3647 116.717 43.3493 116.534 43.3338 116.351C43.3049 116.009 43.2794 115.666 43.2575 115.323C43.2357 114.967 43.2162 114.611 43.2018 114.255C43.1954 114.099 43.19 113.943 43.185 113.786C43.1702 113.298 43.1595 112.809 43.1595 112.319C43.1595 111.656 43.1766 110.997 43.2038 110.339C43.2119 110.141 43.2243 109.944 43.235 109.746C43.2602 109.271 43.2915 108.798 43.3301 108.326C43.3472 108.118 43.365 107.91 43.3845 107.702C43.4336 107.19 43.491 106.68 43.5559 106.172C43.574 106.03 43.5888 105.887 43.6086 105.744C43.6986 105.088 43.8011 104.435 43.9173 103.785C43.9351 103.687 43.956 103.59 43.9741 103.492C44.0756 102.946 44.1861 102.403 44.3063 101.863C44.3473 101.678 44.3917 101.493 44.435 101.309C44.5445 100.842 44.6614 100.377 44.7847 99.9145C44.8338 99.7311 44.8815 99.5477 44.9329 99.3649C45.0844 98.8247 45.245 98.2876 45.4149 97.7544C45.4425 97.6688 45.4667 97.5821 45.4942 97.4964C45.6918 96.8887 45.9041 96.2864 46.1258 95.6884C46.1957 95.4996 46.2712 95.3135 46.3438 95.1257C46.5007 94.7192 46.6619 94.3138 46.8299 93.9123C46.9277 93.6788 47.0278 93.4467 47.1292 93.2146C47.2871 92.8541 47.4507 92.497 47.6174 92.1409C47.7269 91.9071 47.8344 91.6723 47.9479 91.4408C48.1518 91.0236 48.3652 90.6114 48.5818 90.2005C48.7434 89.8942 48.9094 89.5898 49.078 89.2871C49.2816 88.921 49.4869 88.5558 49.7002 88.196C49.8487 87.9451 50.0039 87.6971 50.1574 87.4489C51.5337 85.225 53.0938 83.1112 54.8461 81.1433C56.3706 79.4304 56.4216 76.8624 54.9667 75.0904C49.0972 67.943 45.8648 58.9045 45.8648 49.639C45.8648 27.5091 63.869 9.50484 85.999 9.50484C108.129 9.50484 126.133 27.5091 126.133 49.639C126.133 58.9042 122.901 67.943 117.031 75.0904C115.576 76.8624 115.627 79.4304 117.152 81.1433C118.903 83.1112 120.464 85.2246 121.841 87.4489C121.994 87.6971 122.149 87.9451 122.298 88.196C122.511 88.5565 122.716 88.9213 122.92 89.2871C123.089 89.5898 123.254 89.8942 123.416 90.2005C123.633 90.6114 123.846 91.0236 124.05 91.4408C124.164 91.6726 124.271 91.9074 124.381 92.1409C124.547 92.4967 124.711 92.8545 124.869 93.2146C124.97 93.4464 125.07 93.6788 125.168 93.9123C125.336 94.3144 125.498 94.7189 125.654 95.1257C125.727 95.3135 125.802 95.4996 125.872 95.6884C126.094 96.2864 126.306 96.8887 126.504 97.4964C126.532 97.5821 126.556 97.6688 126.583 97.7544C126.753 98.2876 126.914 98.8247 127.065 99.3649C127.116 99.5473 127.164 99.7314 127.213 99.9145C127.336 100.377 127.453 100.841 127.563 101.309C127.606 101.493 127.65 101.678 127.692 101.863C127.812 102.403 127.922 102.946 128.024 103.492C128.042 103.59 128.063 103.687 128.081 103.785C128.197 104.435 128.3 105.088 128.389 105.744C128.409 105.887 128.424 106.03 128.442 106.172C128.507 106.681 128.565 107.191 128.613 107.702C128.633 107.91 128.651 108.118 128.668 108.326C128.706 108.798 128.738 109.271 128.763 109.746C128.773 109.944 128.786 110.14 128.794 110.339C128.821 110.997 128.838 111.657 128.838 112.319C128.838 116.842 128.211 121.314 126.974 125.609C126.792 126.239 126.746 126.9 126.838 127.549L127.03 128.907C127.225 130.286 128.027 131.505 129.215 132.231C129.954 132.682 130.795 132.913 131.642 132.913C132.156 132.913 132.673 132.828 133.17 132.655L152.36 125.988C154.135 125.371 155.365 123.748 155.48 121.872C155.522 121.176 155.598 117.183 152.891 107.052ZM119.486 153.56C125.337 153.56 130.285 157.505 131.809 162.875H107.162C108.686 157.505 113.634 153.56 119.486 153.56ZM73.5279 63.5529C73.5488 63.5496 73.5689 63.5455 73.5897 63.5422C73.7883 63.5123 73.9838 63.4757 74.18 63.4397C74.2935 63.4189 74.4088 63.4014 74.522 63.3786C74.7726 63.3278 75.0205 63.2691 75.2671 63.2082C75.3235 63.1941 75.3813 63.183 75.4374 63.1686C75.7384 63.0907 76.0364 63.0057 76.3317 62.9133C76.4308 62.882 76.5279 62.8461 76.6266 62.8132C76.8218 62.7483 77.0173 62.6842 77.2098 62.613C77.3277 62.5693 77.4433 62.5206 77.5602 62.4746C77.7302 62.4074 77.9002 62.3419 78.0678 62.27C78.1908 62.2172 78.311 62.1601 78.4326 62.105C78.5905 62.0331 78.7487 61.9619 78.9039 61.8857C79.0272 61.8252 79.1488 61.7607 79.2708 61.6975C79.4203 61.6203 79.5694 61.543 79.7166 61.4617C79.8392 61.3938 79.9598 61.323 80.0807 61.2521C80.2232 61.1688 80.3653 61.0854 80.5054 60.9981C80.6256 60.9235 80.7432 60.8466 80.8618 60.7693C80.9989 60.68 81.1346 60.5899 81.269 60.4969C81.3855 60.4163 81.5004 60.334 81.615 60.2506C81.7467 60.1552 81.8773 60.0582 82.0057 59.9594C82.1179 59.8734 82.2291 59.7857 82.3396 59.697C82.4662 59.5949 82.5912 59.4918 82.7148 59.3863C82.8223 59.2949 82.9292 59.2029 83.0343 59.1091C83.1562 59.0006 83.2765 58.8898 83.3958 58.7779C83.4979 58.6825 83.5993 58.5871 83.6991 58.489C83.817 58.3734 83.9319 58.2555 84.0465 58.1369C84.1426 58.0371 84.239 57.9384 84.3324 57.8369C84.4459 57.714 84.5564 57.5883 84.6666 57.462C84.756 57.3599 84.846 57.2584 84.933 57.1543C85.0436 57.0226 85.1497 56.8879 85.2559 56.7529C85.3375 56.6501 85.4201 56.5479 85.4994 56.4428C85.6076 56.2997 85.7107 56.1535 85.8149 56.0074C85.8753 55.9228 85.9392 55.8401 85.9983 55.7544C86.0574 55.8405 86.1212 55.9228 86.1817 56.0074C86.2855 56.1535 86.389 56.3 86.4972 56.4428C86.5764 56.5476 86.6594 56.6497 86.7407 56.7529C86.8475 56.8879 86.9537 57.0226 87.0635 57.1543C87.1506 57.2588 87.2409 57.3596 87.3299 57.462C87.4405 57.5883 87.5507 57.714 87.6642 57.8369C87.7579 57.9384 87.8543 58.0378 87.9501 58.1369C88.0646 58.2558 88.1799 58.3734 88.2974 58.489C88.3972 58.5867 88.4987 58.6821 88.6008 58.7779C88.7201 58.8898 88.8403 59.0006 88.9623 59.1091C89.0674 59.2029 89.1746 59.2949 89.2818 59.3863C89.4057 59.4914 89.5303 59.5949 89.657 59.697C89.7675 59.7854 89.8784 59.8731 89.9909 59.9594C90.1199 60.0582 90.2503 60.1549 90.3816 60.2506C90.4962 60.334 90.6114 60.4166 90.7276 60.4969C90.8617 60.5896 90.9984 60.68 91.1348 60.7693C91.253 60.8466 91.3709 60.9235 91.4912 60.9981C91.6313 61.0851 91.7734 61.1684 91.9158 61.2521C92.0368 61.3223 92.157 61.3935 92.28 61.4617C92.4268 61.5433 92.5763 61.6199 92.7258 61.6975C92.8477 61.761 92.969 61.8252 93.0926 61.8857C93.2482 61.9619 93.4061 62.0331 93.5639 62.105C93.6856 62.1604 93.8058 62.2172 93.9288 62.27C94.0961 62.3419 94.2664 62.4077 94.4364 62.4746C94.5533 62.5206 94.6689 62.569 94.7868 62.613C94.9793 62.6842 95.1748 62.7483 95.37 62.8132C95.4687 62.8458 95.5655 62.882 95.6649 62.9133C95.9599 63.0057 96.2578 63.0913 96.5592 63.1686C96.6156 63.183 96.6734 63.1941 96.7295 63.2082C96.9764 63.2694 97.224 63.3278 97.4746 63.3786C97.5878 63.4014 97.7027 63.4192 97.8166 63.4397C98.0128 63.4757 98.2086 63.5123 98.4068 63.5422C98.4277 63.5455 98.4478 63.5496 98.4686 63.5529C98.6534 64.3944 98.812 65.0922 98.9474 65.6703L86.0991 81.5061C86.0981 81.5075 86.0967 81.5088 86.0957 81.5102L85.9969 81.6321L73.0465 65.67C73.1849 65.0929 73.3432 64.3951 73.5279 63.5529ZM34.5473 121.307L26.1398 118.385C26.4354 116.476 27.0062 113.578 28.1077 109.457C29.5785 103.951 32.7464 99.5396 36.1545 96.1658C36.1504 96.1802 36.1464 96.195 36.1424 96.2095C36.1209 96.2827 36.1027 96.3566 36.0819 96.4298C35.9008 97.058 35.7292 97.6896 35.5696 98.3249C35.5175 98.5335 35.4712 98.7434 35.4215 98.9527C35.3012 99.4556 35.1843 99.9595 35.0778 100.467C35.0257 100.715 34.9787 100.964 34.9296 101.213C34.8369 101.685 34.7486 102.158 34.6673 102.633C34.6216 102.9 34.5793 103.168 34.5379 103.435C34.4657 103.898 34.3995 104.363 34.3391 104.828C34.3031 105.102 34.2678 105.376 34.2363 105.651C34.1818 106.121 34.1358 106.592 34.0928 107.064C34.0686 107.332 34.0414 107.6 34.0209 107.87C33.982 108.377 33.9537 108.885 33.9282 109.394C33.9165 109.627 33.8997 109.859 33.8909 110.092C33.8624 110.833 33.8459 111.575 33.8459 112.32C33.8459 112.976 33.8614 113.631 33.8842 114.285C33.8902 114.468 33.8966 114.65 33.9047 114.833C33.9309 115.419 33.9635 116.005 34.0075 116.589C34.0293 116.884 34.0579 117.178 34.0844 117.472C34.1096 117.748 34.1362 118.025 34.1654 118.3C34.2689 119.306 34.3901 120.31 34.5473 121.307ZM41.0703 162.875C42.5941 157.505 47.5421 153.56 53.3938 153.56C53.5188 153.56 53.6407 153.572 53.7647 153.575C54.2649 153.59 54.7601 153.631 55.2482 153.703C55.2912 153.709 55.3349 153.712 55.3775 153.719C55.6298 153.759 55.8791 153.81 56.1273 153.865C56.1878 153.878 56.2489 153.889 56.3091 153.903C56.5594 153.962 56.8059 154.029 57.0512 154.103C57.1029 154.118 57.1546 154.133 57.2064 154.15C57.457 154.228 57.7052 154.314 57.9498 154.408C57.9884 154.423 58.0267 154.438 58.0654 154.453C58.3193 154.553 58.5703 154.659 58.8165 154.775C58.8347 154.783 58.8528 154.793 58.8709 154.801C59.8734 155.277 60.808 155.885 61.6562 156.601C61.7271 156.661 61.801 156.718 61.8709 156.779C61.9995 156.893 62.1218 157.014 62.2461 157.133C62.3603 157.242 62.4752 157.35 62.5851 157.464C62.6872 157.569 62.785 157.678 62.8831 157.787C63.0063 157.923 63.129 158.061 63.2462 158.202C63.3315 158.305 63.4138 158.41 63.4958 158.515C63.6167 158.67 63.7343 158.828 63.8485 158.988C63.9224 159.093 63.9953 159.198 64.0659 159.304C64.1768 159.472 64.2826 159.642 64.3857 159.814C64.4512 159.924 64.5181 160.034 64.5806 160.146C64.6773 160.319 64.7673 160.497 64.8557 160.675C64.9148 160.794 64.9763 160.911 65.0321 161.033C65.3042 161.625 65.536 162.238 65.7167 162.874H41.0699L41.0703 162.875ZM137.452 121.307C137.919 118.346 138.154 115.342 138.154 112.319C138.154 111.574 138.137 110.831 138.109 110.089C138.1 109.854 138.083 109.621 138.071 109.386C138.046 108.878 138.018 108.371 137.978 107.866C137.958 107.593 137.93 107.321 137.905 107.049C137.862 106.581 137.817 106.114 137.763 105.647C137.73 105.367 137.694 105.088 137.658 104.809C137.597 104.35 137.532 103.892 137.461 103.434C137.418 103.159 137.374 102.885 137.327 102.61C137.248 102.145 137.161 101.683 137.071 101.22C137.02 100.96 136.97 100.7 136.915 100.441C136.813 99.9532 136.7 99.4677 136.584 98.983C136.53 98.7549 136.479 98.5251 136.422 98.298C136.277 97.7242 136.121 97.1541 135.959 96.5854C135.92 96.4513 135.887 96.3156 135.848 96.1819C135.841 96.1581 135.835 96.1339 135.828 96.11C139.236 99.4812 142.408 103.904 143.891 109.454C144.992 113.576 145.563 116.474 145.859 118.383L137.452 121.307Z" fill="#164B60"/>
</g>
<defs>
<clipPath id="clip0_16_769">
<rect width="172" height="172" fill="white" transform="translate(0 0.189941)"/>
</clipPath>
</defs>
</svg>
