<svg width="27" height="41" viewBox="0 0 27 41" fill="none" xmlns="http://www.w3.org/2000/svg">
<path d="M8.10953 1.12844C8.10953 1.12844 8.53891 1.04586 9.39766 0.880722C10.2564 0.715576 11.6216 0.633003 13.4932 0.633003C15.3649 0.633003 17.1484 0.798149 18.8439 1.12844C20.5394 1.45872 21.9376 1.87709 23.0386 2.38353C24.1395 2.88997 25.0093 3.41843 25.6478 3.96891C26.2864 4.51939 26.6057 5.02584 26.6057 5.48824V36.9647C26.6057 37.8675 26.2809 38.6437 25.6313 39.2932C24.9818 39.9428 24.2056 40.2676 23.3028 40.2676H3.4855C2.58271 40.2676 1.80653 39.9428 1.15697 39.2932C0.507401 38.6437 0.182617 37.8675 0.182617 36.9647V5.48824C0.182617 5.02584 0.512905 4.51389 1.17348 3.9524C1.83406 3.39091 2.72584 2.86245 3.84882 2.36702C4.97179 1.87159 6.39203 1.45872 8.10953 1.12844ZM3.4855 7.23877V30.3589H23.3028V7.23877H3.4855ZM15.8218 32.8856C15.8218 32.8856 15.6539 32.7177 15.3181 32.3819C14.9823 32.0462 14.341 31.8783 13.3941 31.8783C12.4473 31.8783 11.6381 32.2141 10.9665 32.8856C10.2949 33.5572 9.95915 34.3664 9.95915 35.3133C9.95915 36.2601 10.2949 37.0693 10.9665 37.7409C11.6381 38.4125 12.4473 38.7483 13.3941 38.7483C14.341 38.7483 15.1502 38.4125 15.8218 37.7409C16.4933 37.0693 16.8291 36.2601 16.8291 35.3133C16.8291 34.3664 16.4933 33.5572 15.8218 32.8856Z" fill="#333333"/>
</svg>
