<svg width="40" height="40" viewBox="0 0 40 40" fill="none" xmlns="http://www.w3.org/2000/svg">
<path d="M19.9999 0.302925C22.7303 0.302925 25.0643 1.27177 27.002 3.20946C28.9397 5.14715 29.9085 7.48119 29.9085 10.2116V18.4688C29.9085 19.4817 29.5672 20.5606 28.8847 21.7056C28.2021 22.8506 27.4424 23.4231 26.6057 23.4231V25.9003C26.6057 26.1204 26.6717 26.3572 26.8038 26.6104C26.936 26.8636 27.1011 27.0563 27.2993 27.1884L39.1236 34.785C39.3218 34.8951 39.4869 35.0768 39.619 35.33C39.7511 35.5832 39.8172 35.8199 39.8172 36.0401V39.1118C39.8172 39.332 39.7346 39.5246 39.5695 39.6898C39.4043 39.8549 39.2117 39.9375 38.9915 39.9375H1.00834C0.788145 39.9375 0.595477 39.8549 0.430333 39.6898C0.265189 39.5246 0.182617 39.332 0.182617 39.1118V36.0401C0.182617 35.8199 0.248675 35.5832 0.38079 35.33C0.512905 35.0768 0.678049 34.8951 0.876222 34.785L12.7005 27.1884C12.8987 27.0563 13.0639 26.8636 13.196 26.6104C13.3281 26.3572 13.3941 26.1204 13.3941 25.9003V23.4231C12.5574 23.4231 11.7977 22.8506 11.1152 21.7056C10.4326 20.5606 10.0913 19.4817 10.0913 18.4688V10.2116C10.0913 7.48119 11.0601 5.14715 12.9978 3.20946C14.9355 1.27177 17.2695 0.302925 19.9999 0.302925Z" fill="#333333"/>
</svg>
