<svg width="149" height="32" viewBox="0 0 149 32" fill="none" xmlns="http://www.w3.org/2000/svg">
<g filter="url(#filter0_d_16_743)">
<path d="M13.888 23.256C13.2267 23.256 12.7147 23.0747 12.352 22.712C12.0107 22.328 11.84 21.7947 11.84 21.112V11.384L12.704 13.848L4.992 3C4.71467 2.616 4.58667 2.21067 4.608 1.784C4.65067 1.336 4.832 0.962666 5.152 0.664C5.472 0.343999 5.92 0.183998 6.496 0.183998C6.92267 0.183998 7.30667 0.290665 7.648 0.504C8.01067 0.717333 8.352 1.048 8.672 1.496L14.4 9.624H13.504L19.264 1.496C19.6053 1.02667 19.936 0.696 20.256 0.504C20.576 0.290665 20.9707 0.183998 21.44 0.183998C21.9947 0.183998 22.4213 0.333331 22.72 0.631998C23.04 0.909332 23.2 1.26133 23.2 1.688C23.2213 2.11467 23.072 2.56267 22.752 3.032L15.104 13.848L15.936 11.384V21.112C15.936 22.5413 15.2533 23.256 13.888 23.256ZM30.341 23.32C28.7197 23.32 27.3117 22.9893 26.117 22.328C24.9223 21.6667 23.9943 20.728 23.333 19.512C22.6717 18.2747 22.341 16.824 22.341 15.16C22.341 13.9013 22.5223 12.7813 22.885 11.8C23.269 10.7973 23.813 9.944 24.517 9.24C25.221 8.51467 26.0637 7.97067 27.045 7.608C28.0263 7.224 29.125 7.032 30.341 7.032C31.9623 7.032 33.3703 7.36267 34.565 8.024C35.7597 8.68533 36.6877 9.624 37.349 10.84C38.0103 12.056 38.341 13.496 38.341 15.16C38.341 16.4187 38.149 17.5493 37.765 18.552C37.4023 19.5547 36.869 20.4187 36.165 21.144C35.461 21.848 34.6183 22.392 33.637 22.776C32.6557 23.1387 31.557 23.32 30.341 23.32ZM30.341 20.28C31.1303 20.28 31.8237 20.088 32.421 19.704C33.0183 19.32 33.477 18.7547 33.797 18.008C34.1383 17.24 34.309 16.2907 34.309 15.16C34.309 13.4533 33.9463 12.184 33.221 11.352C32.4957 10.4987 31.5357 10.072 30.341 10.072C29.5517 10.072 28.8583 10.264 28.261 10.648C27.6637 11.0107 27.1943 11.576 26.853 12.344C26.533 13.0907 26.373 14.0293 26.373 15.16C26.373 16.8453 26.7357 18.1253 27.461 19C28.1863 19.8533 29.1463 20.28 30.341 20.28ZM47.3065 23.32C46.0052 23.32 44.9278 23.0853 44.0745 22.616C43.2212 22.1253 42.5812 21.4 42.1545 20.44C41.7492 19.48 41.5465 18.2853 41.5465 16.856V9.112C41.5465 8.42933 41.7172 7.928 42.0585 7.608C42.3998 7.26667 42.8905 7.096 43.5305 7.096C44.1705 7.096 44.6612 7.26667 45.0025 7.608C45.3652 7.928 45.5465 8.42933 45.5465 9.112V16.92C45.5465 18.0293 45.7705 18.8507 46.2185 19.384C46.6665 19.9173 47.3812 20.184 48.3625 20.184C49.4292 20.184 50.3038 19.8213 50.9865 19.096C51.6692 18.3493 52.0105 17.368 52.0105 16.152V9.112C52.0105 8.42933 52.1812 7.928 52.5225 7.608C52.8638 7.26667 53.3545 7.096 53.9945 7.096C54.6345 7.096 55.1252 7.26667 55.4665 7.608C55.8292 7.928 56.0105 8.42933 56.0105 9.112V21.208C56.0105 22.5733 55.3598 23.256 54.0585 23.256C53.4398 23.256 52.9598 23.0853 52.6185 22.744C52.2772 22.3813 52.1065 21.8693 52.1065 21.208V18.776L52.5545 19.736C52.1065 20.888 51.4238 21.7733 50.5065 22.392C49.6105 23.0107 48.5438 23.32 47.3065 23.32ZM62.4778 23.256C61.8804 23.256 61.4218 23.0853 61.1018 22.744C60.7818 22.4027 60.6218 21.9333 60.6218 21.336V2.104C60.6218 1.48533 60.7924 1.016 61.1338 0.695999C61.4751 0.354665 61.9444 0.183998 62.5418 0.183998C63.0751 0.183998 63.4911 0.290665 63.7898 0.504C64.1098 0.696 64.3978 1.03733 64.6538 1.528L72.5578 16.152H71.5338L79.4378 1.528C79.6938 1.03733 79.9711 0.696 80.2698 0.504C80.5684 0.290665 80.9844 0.183998 81.5178 0.183998C82.1151 0.183998 82.5738 0.354665 82.8938 0.695999C83.2138 1.016 83.3738 1.48533 83.3738 2.104V21.336C83.3738 21.9333 83.2138 22.4027 82.8938 22.744C82.5951 23.0853 82.1364 23.256 81.5178 23.256C80.9204 23.256 80.4618 23.0853 80.1418 22.744C79.8218 22.4027 79.6618 21.9333 79.6618 21.336V6.52H80.3658L73.6458 18.776C73.4324 19.1387 73.2084 19.4053 72.9738 19.576C72.7391 19.7467 72.4191 19.832 72.0138 19.832C71.6084 19.832 71.2778 19.7467 71.0218 19.576C70.7658 19.384 70.5418 19.1173 70.3498 18.776L63.5658 6.488H64.3338V21.336C64.3338 21.9333 64.1738 22.4027 63.8538 22.744C63.5551 23.0853 63.0964 23.256 62.4778 23.256ZM88.563 23.256C88.051 23.256 87.635 23.1387 87.315 22.904C87.0163 22.6693 86.835 22.36 86.771 21.976C86.707 21.5707 86.7817 21.1227 86.995 20.632L95.443 1.912C95.7203 1.29333 96.051 0.855999 96.435 0.599998C96.8403 0.322665 97.299 0.183998 97.811 0.183998C98.3017 0.183998 98.739 0.322665 99.123 0.599998C99.5283 0.855999 99.8697 1.29333 100.147 1.912L108.627 20.632C108.862 21.1227 108.947 21.5707 108.883 21.976C108.819 22.3813 108.638 22.7013 108.339 22.936C108.04 23.1493 107.646 23.256 107.155 23.256C106.558 23.256 106.088 23.1173 105.747 22.84C105.427 22.5413 105.139 22.0933 104.883 21.496L102.803 16.664L104.531 17.784H91.027L92.755 16.664L90.707 21.496C90.4297 22.1147 90.1417 22.5627 89.843 22.84C89.5443 23.1173 89.1177 23.256 88.563 23.256ZM97.747 4.888L93.267 15.544L92.435 14.52H103.123L102.323 15.544L97.811 4.888H97.747ZM117.14 23.256C116.478 23.256 115.966 23.0747 115.604 22.712C115.262 22.328 115.092 21.8053 115.092 21.144V3.864H108.852C108.297 3.864 107.86 3.71467 107.54 3.416C107.241 3.096 107.091 2.66933 107.091 2.136C107.091 1.58133 107.241 1.16533 107.54 0.887999C107.86 0.589332 108.297 0.439999 108.852 0.439999H125.428C125.982 0.439999 126.409 0.589332 126.708 0.887999C127.028 1.16533 127.188 1.58133 127.188 2.136C127.188 2.66933 127.028 3.096 126.708 3.416C126.409 3.71467 125.982 3.864 125.428 3.864H119.188V21.144C119.188 21.8053 119.017 22.328 118.676 22.712C118.334 23.0747 117.822 23.256 117.14 23.256ZM131.703 23C130.999 23 130.455 22.8187 130.071 22.456C129.708 22.072 129.527 21.528 129.527 20.824V2.616C129.527 1.912 129.708 1.37867 130.071 1.016C130.455 0.631999 130.999 0.439999 131.703 0.439999H143.127C143.66 0.439999 144.065 0.578665 144.343 0.855999C144.641 1.13333 144.791 1.528 144.791 2.04C144.791 2.57333 144.641 2.98933 144.343 3.288C144.065 3.56533 143.66 3.704 143.127 3.704H133.463V9.912H142.423C142.977 9.912 143.393 10.0507 143.671 10.328C143.948 10.6053 144.087 11.0107 144.087 11.544C144.087 12.0773 143.948 12.4827 143.671 12.76C143.393 13.0373 142.977 13.176 142.423 13.176H133.463V19.736H143.127C143.66 19.736 144.065 19.8747 144.343 20.152C144.641 20.4293 144.791 20.8347 144.791 21.368C144.791 21.9013 144.641 22.3067 144.343 22.584C144.065 22.8613 143.66 23 143.127 23H131.703Z" fill="white"/>
</g>
<defs>
<filter id="filter0_d_16_743" x="0.576172" y="0.184082" width="148.214" height="31.1357" filterUnits="userSpaceOnUse" color-interpolation-filters="sRGB">
<feFlood flood-opacity="0" result="BackgroundImageFix"/>
<feColorMatrix in="SourceAlpha" type="matrix" values="0 0 0 0 0 0 0 0 0 0 0 0 0 0 0 0 0 0 127 0" result="hardAlpha"/>
<feOffset dy="4"/>
<feGaussianBlur stdDeviation="2"/>
<feComposite in2="hardAlpha" operator="out"/>
<feColorMatrix type="matrix" values="0 0 0 0 0 0 0 0 0 0 0 0 0 0 0 0 0 0 0.25 0"/>
<feBlend mode="normal" in2="BackgroundImageFix" result="effect1_dropShadow_16_743"/>
<feBlend mode="normal" in="SourceGraphic" in2="effect1_dropShadow_16_743" result="shape"/>
</filter>
</defs>
</svg>
