<svg width="26" height="20" viewBox="0 0 26 20" fill="none" xmlns="http://www.w3.org/2000/svg">
<path d="M18.7715 20H7.34291C3.41148 20 0.771484 17.36 0.771484 13.4286V6.57143C0.771484 2.64 3.41148 0 7.34291 0H18.7715C22.7029 0 25.3429 2.64 25.3429 6.57143V13.4286C25.3429 17.36 22.7029 20 18.7715 20ZM7.34291 1.71429C4.39434 1.71429 2.48577 3.62286 2.48577 6.57143V13.4286C2.48577 16.3771 4.39434 18.2857 7.34291 18.2857H18.7715C21.7201 18.2857 23.6286 16.3771 23.6286 13.4286V6.57143C23.6286 3.62286 21.7201 1.71429 18.7715 1.71429H7.34291Z" fill="white"/>
<path d="M11.4462 14.0346C11.1148 14.0346 10.7948 13.9546 10.509 13.7946C9.84614 13.4174 9.45752 12.6517 9.45752 11.7032V8.3203C9.45752 7.37175 9.83471 6.60605 10.509 6.22891C11.1719 5.85176 12.0289 5.9203 12.8404 6.41173L15.6633 8.10316C16.4405 8.57173 16.8861 9.26887 16.8861 10.0117C16.8861 10.7546 16.4405 11.4517 15.6633 11.9203L12.8404 13.6117C12.3718 13.886 11.8919 14.0346 11.4462 14.0346ZM11.4462 7.68032C11.4005 7.68032 11.3661 7.69174 11.3432 7.70317C11.2632 7.74887 11.1718 7.95459 11.1718 8.30887V11.6917C11.1718 12.0346 11.2632 12.2403 11.3432 12.2974C11.4347 12.3432 11.6519 12.3203 11.9491 12.1374L14.7718 10.446C15.0575 10.2746 15.1605 10.1032 15.1605 10.0003C15.1605 9.89744 15.0575 9.73744 14.7718 9.55459L11.9491 7.86316C11.7433 7.73744 11.5605 7.68032 11.4462 7.68032Z" fill="white"/>
</svg>
